<svg width="64" height="64" viewBox="0 0 64 64" fill="none" xmlns="http://www.w3.org/2000/svg">
<path d="M9.54135 10C8.58235 10 7.86385 10.879 8.02185 11.758L14.4969 51.4025C14.6569 52.4415 15.5354 53.16 16.5744 53.16H47.9044C48.6254 53.16 49.2644 52.6 49.4244 51.881L55.9789 11.838C56.1369 10.879 55.4184 10.08 54.4594 10.08L9.54135 10ZM37.0354 38.6135H27.0454L24.4064 24.467H39.5139L37.0354 38.6135Z" fill="#2684FF"/>
<path d="M53.8199 24.4668H39.4339L37.0349 38.6133H27.0449L15.2949 52.5993C15.2949 52.5993 15.8549 53.0798 16.6544 53.0798H47.9844C48.7049 53.0798 49.3439 52.5198 49.5039 51.8008L53.8199 24.4668Z" fill="url(#paint0_linear_207_794)"/>
<defs>
<linearGradient id="paint0_linear_207_794" x1="57.1859" y1="28.4518" x2="33.3439" y2="47.0638" gradientUnits="userSpaceOnUse">
<stop offset="0.176" stop-color="#0052CC"/>
<stop offset="1" stop-color="#2684FF"/>
</linearGradient>
</defs>
</svg>
