<svg width="64" height="64" viewBox="0 0 64 64" fill="none" xmlns="http://www.w3.org/2000/svg">
<path fill-rule="evenodd" clip-rule="evenodd" d="M31.9997 2.55127C15.3262 2.55127 1.80566 16.0688 1.80566 32.7453C1.80566 46.0863 10.4572 57.4038 22.4542 61.3968C23.9627 61.6768 24.5167 60.7418 24.5167 59.9443C24.5167 59.2243 24.4887 56.8458 24.4757 54.3228C16.0757 56.1493 14.3032 50.7603 14.3032 50.7603C12.9297 47.2703 10.9507 46.3423 10.9507 46.3423C8.21066 44.4683 11.1572 44.5073 11.1572 44.5073C14.1887 44.7198 15.7857 47.6188 15.7857 47.6188C18.4787 52.2338 22.8492 50.8998 24.5722 50.1288C24.8432 48.1773 25.6257 46.8448 26.4892 46.0908C19.7827 45.3283 12.7322 42.7388 12.7322 31.1693C12.7322 27.8728 13.9122 25.1793 15.8437 23.0643C15.5297 22.3043 14.4962 19.2333 16.1357 15.0743C16.1357 15.0743 18.6707 14.2628 24.4407 18.1693C26.8497 17.4998 29.4332 17.1633 31.9997 17.1518C34.5647 17.1633 37.1497 17.4988 39.5632 18.1683C45.3262 14.2618 47.8582 15.0733 47.8582 15.0733C49.5017 19.2318 48.4682 22.3033 48.1547 23.0633C50.0907 25.1783 51.2622 27.8718 51.2622 31.1683C51.2622 42.7653 44.1987 45.3183 37.4752 46.0663C38.5587 47.0033 39.5237 48.8413 39.5237 51.6578C39.5237 55.6978 39.4887 58.9493 39.4887 59.9438C39.4887 60.7473 40.0327 61.6888 41.5627 61.3923C53.5527 57.3953 62.1942 46.0813 62.1942 32.7453C62.1937 16.0698 48.6747 2.55177 31.9997 2.55177V2.55127Z" fill="#181616"/>
<path d="M13.2418 45.9027C13.1753 46.0527 12.9393 46.0977 12.7243 45.9952C12.5043 45.8972 12.3818 45.6927 12.4528 45.5422C12.5178 45.3872 12.7543 45.3447 12.9728 45.4482C13.1928 45.5467 13.3178 45.7532 13.2413 45.9032L13.2418 45.9027ZM14.4648 47.2672C14.3213 47.4007 14.0398 47.3387 13.8488 47.1272C13.6508 46.9172 13.6138 46.6357 13.7603 46.5002C13.9093 46.3672 14.1823 46.4302 14.3803 46.6402C14.5773 46.8532 14.6163 47.1322 14.4653 47.2677L14.4648 47.2672ZM15.6558 49.0057C15.4708 49.1347 15.1678 49.0142 14.9808 48.7457C14.7958 48.4767 14.7958 48.1542 14.9858 48.0257C15.1723 47.8967 15.4708 48.0132 15.6608 48.2792C15.8448 48.5517 15.8448 48.8742 15.6558 49.0052V49.0057ZM17.2863 50.6862C17.1213 50.8687 16.7683 50.8197 16.5103 50.5712C16.2468 50.3277 16.1733 49.9812 16.3388 49.7992C16.5068 49.6162 16.8613 49.6672 17.1208 49.9142C17.3843 50.1572 17.4638 50.5042 17.2873 50.6857L17.2863 50.6862ZM19.5363 51.6617C19.4628 51.8982 19.1238 52.0057 18.7813 51.9047C18.4398 51.8012 18.2163 51.5247 18.2863 51.2857C18.3563 51.0472 18.6978 50.9357 19.0423 51.0432C19.3838 51.1462 19.6073 51.4212 19.5363 51.6617ZM22.0078 51.8422C22.0163 52.0912 21.7263 52.2972 21.3678 52.3022C21.0063 52.3107 20.7138 52.1087 20.7103 51.8637C20.7103 51.6122 20.9943 51.4087 21.3553 51.4017C21.7138 51.3952 22.0083 51.5952 22.0083 51.8417L22.0078 51.8422ZM24.3068 51.4512C24.3498 51.6937 24.1003 51.9432 23.7438 52.0097C23.3938 52.0747 23.0688 51.9237 23.0238 51.6832C22.9808 51.4342 23.2348 51.1847 23.5848 51.1202C23.9418 51.0587 24.2618 51.2052 24.3068 51.4517V51.4512Z" fill="#181616"/>
</svg>
