<svg width="64" height="64" viewBox="0 0 64 64" fill="none" xmlns="http://www.w3.org/2000/svg">
<path d="M63.3076 36.155L59.7906 25.3315L52.8201 3.87998C52.4621 2.77698 50.9001 2.77698 50.5421 3.87998L43.5721 25.3315H20.4281L13.4581 3.87998C13.0996 2.77698 11.5381 2.77698 11.1796 3.87998L4.21009 25.332L0.69259 36.155C0.536146 36.6362 0.536062 37.1546 0.692349 37.6358C0.848636 38.1171 1.15327 38.5365 1.56259 38.834L32.0001 60.947L62.4371 38.8335C62.8462 38.536 63.1508 38.1166 63.307 37.6355C63.4633 37.1544 63.4633 36.6361 63.3071 36.155" fill="#FC6D26"/>
<path d="M31.9997 60.947L43.5717 25.332H20.4277L31.9997 60.9465V60.947Z" fill="#E24329"/>
<path d="M32 60.947L20.428 25.332H4.20996L32 60.9465V60.947Z" fill="#FC6D26"/>
<path d="M4.20966 25.3315L0.691658 36.155C0.535173 36.6362 0.53507 37.1545 0.691364 37.6357C0.847658 38.1169 1.15232 38.5362 1.56166 38.8335L31.9997 60.947L4.20966 25.332V25.3315Z" fill="#FCA326"/>
<path d="M4.20996 25.3315H20.428L13.458 3.87998C13.0995 2.77698 11.538 2.77698 11.1795 3.87998L4.20996 25.332V25.3315Z" fill="#E24329"/>
<path d="M32 60.947L43.572 25.332H59.7905L32 60.9465V60.947Z" fill="#FC6D26"/>
<path d="M59.79 25.3315L63.3075 36.155C63.464 36.6362 63.4641 37.1545 63.3078 37.6357C63.1515 38.1169 62.8468 38.5362 62.4375 38.8335L32 60.947L59.79 25.332V25.3315Z" fill="#FCA326"/>
<path d="M59.7898 25.3315H43.5723L50.5423 3.88047C50.9008 2.77747 52.4623 2.77747 52.8208 3.88047L59.7908 25.332L59.7898 25.3315Z" fill="#E24329"/>
</svg>
