<svg width="64" height="64" viewBox="0 0 64 64" fill="none" xmlns="http://www.w3.org/2000/svg">
<circle cx="32" cy="32" r="32" fill="#2D2D2D"/>
<path d="M25.6608 44V35.68C25.6608 35.136 25.6234 34.5333 25.5488 33.872C25.4741 33.2107 25.2981 32.576 25.0208 31.968C24.7541 31.3493 24.3488 30.8427 23.8048 30.448C23.2714 30.0533 22.5461 29.856 21.6288 29.856C21.1381 29.856 20.6528 29.936 20.1728 30.096C19.6928 30.256 19.2554 30.5333 18.8608 30.928C18.4768 31.312 18.1674 31.8453 17.9328 32.528C17.6981 33.2 17.5808 34.064 17.5808 35.12L15.2928 34.144C15.2928 32.672 15.5754 31.3387 16.1408 30.144C16.7168 28.9493 17.5594 28 18.6688 27.296C19.7781 26.5813 21.1434 26.224 22.7648 26.224C24.0448 26.224 25.1008 26.4373 25.9328 26.864C26.7648 27.2907 27.4261 27.8347 27.9167 28.496C28.4074 29.1573 28.7701 29.8613 29.0048 30.608C29.2394 31.3547 29.3888 32.064 29.4528 32.736C29.5274 33.3973 29.5648 33.936 29.5648 34.352V44H25.6608ZM13.6768 44V20.96H17.1168V33.088H17.5808V44H13.6768ZM45.692 44V35.68C45.692 35.136 45.6547 34.5333 45.58 33.872C45.5053 33.2107 45.3293 32.576 45.052 31.968C44.7853 31.3493 44.38 30.8427 43.836 30.448C43.3027 30.0533 42.5773 29.856 41.66 29.856C41.1693 29.856 40.684 29.936 40.204 30.096C39.724 30.256 39.2867 30.5333 38.892 30.928C38.508 31.312 38.1987 31.8453 37.964 32.528C37.7293 33.2 37.612 34.064 37.612 35.12L35.324 34.144C35.324 32.672 35.6067 31.3387 36.172 30.144C36.748 28.9493 37.5907 28 38.7 27.296C39.8093 26.5813 41.1747 26.224 42.796 26.224C44.076 26.224 45.132 26.4373 45.964 26.864C46.796 27.2907 47.4573 27.8347 47.948 28.496C48.4387 29.1573 48.8013 29.8613 49.036 30.608C49.2707 31.3547 49.42 32.064 49.484 32.736C49.5587 33.3973 49.596 33.936 49.596 34.352V44H45.692ZM33.708 44V20.96H37.148V33.088H37.612V44H33.708Z" fill="white"/>
</svg>
