<?xml version="1.0" standalone="no"?>
<!DOCTYPE svg PUBLIC "-//W3C//DTD SVG 20010904//EN"
 "http://www.w3.org/TR/2001/REC-SVG-20010904/DTD/svg10.dtd">
<svg version="1.0" xmlns="http://www.w3.org/2000/svg"
 width="700.000000pt" height="700.000000pt" viewBox="0 0 700.000000 700.000000"
 preserveAspectRatio="xMidYMid meet">
<metadata>
Created by potrace 1.14, written by Peter Selinger 2001-2017
</metadata>
<g transform="translate(0.000000,700.000000) scale(0.100000,-0.100000)"
fill="#000000" stroke="none">
<path d="M1239 6119 c-139 -20 -288 -150 -342 -297 -20 -57 -21 -58 -22 -2292
0 -1229 3 -2259 8 -2289 23 -155 178 -321 333 -357 43 -10 4491 -11 4548 -1
145 25 284 147 339 295 l21 57 0 2233 c1 1661 -2 2251 -10 2303 -24 142 -143
277 -292 332 -57 20 -58 20 -2298 21 -1232 1 -2261 -2 -2285 -5z m4449 -2620
l-1 -2188 -2187 1 -2187 1 0 2187 -1 2187 2188 0 2188 0 0 -2188z"/>
<path d="M4075 4340 l-159 -161 339 -339 340 -340 -340 -340 -339 -340 159
-160 160 -160 500 500 500 500 -500 500 -500 500 -160 -160z"/>
<path d="M2260 3995 l-495 -495 500 -500 500 -500 160 160 160 160 -340 340
-340 340 330 330 c181 181 331 333 333 338 2 7 -256 273 -302 311 -9 7 -145
-123 -506 -484z"/>
</g>
</svg>
