<svg width="146" height="24" viewBox="0 0 146 24" fill="none" xmlns="http://www.w3.org/2000/svg">
<path d="M8.816 14.2L5.808 17.336V23H0.656V0.599998H5.808V11.064L15.728 0.599998H21.488L12.208 10.584L22.032 23H15.984L8.816 14.2ZM32.0235 4.76V18.84H35.8955V23H22.9355V18.84H26.8395V4.76H22.9355V0.599998H35.8955V4.76H32.0235ZM50.504 23.384C48.1787 23.384 46.0773 22.8827 44.2 21.88C42.344 20.8773 40.8827 19.5013 39.816 17.752C38.7707 15.9813 38.248 13.9973 38.248 11.8C38.248 9.60267 38.7707 7.62933 39.816 5.88C40.8827 4.10933 42.344 2.72267 44.2 1.72C46.0773 0.717333 48.1787 0.216 50.504 0.216C52.8293 0.216 54.92 0.717333 56.776 1.72C58.632 2.72267 60.0933 4.10933 61.16 5.88C62.2267 7.62933 62.76 9.60267 62.76 11.8C62.76 13.9973 62.2267 15.9813 61.16 17.752C60.0933 19.5013 58.632 20.8773 56.776 21.88C54.92 22.8827 52.8293 23.384 50.504 23.384ZM50.504 18.968C51.8267 18.968 53.0213 18.6693 54.088 18.072C55.1547 17.4533 55.9867 16.6 56.584 15.512C57.2027 14.424 57.512 13.1867 57.512 11.8C57.512 10.4133 57.2027 9.176 56.584 8.088C55.9867 7 55.1547 6.15733 54.088 5.56C53.0213 4.94133 51.8267 4.632 50.504 4.632C49.1813 4.632 47.9867 4.94133 46.92 5.56C45.8533 6.15733 45.0107 7 44.392 8.088C43.7947 9.176 43.496 10.4133 43.496 11.8C43.496 13.1867 43.7947 14.424 44.392 15.512C45.0107 16.6 45.8533 17.4533 46.92 18.072C47.9867 18.6693 49.1813 18.968 50.504 18.968ZM82.6635 6.872C80.7435 5.76267 78.6848 5.048 76.4875 4.728V23H71.3035V4.728C69.1062 5.048 67.0368 5.76267 65.0955 6.872L63.3355 3C64.8715 2.08267 66.5355 1.38933 68.3275 0.919998C70.1195 0.450666 71.9648 0.216 73.8635 0.216C75.7835 0.216 77.6395 0.450666 79.4315 0.919998C81.2448 1.38933 82.9088 2.08267 84.4235 3L82.6635 6.872ZM97.2853 23.384C94.9599 23.384 92.8586 22.8827 90.9813 21.88C89.1253 20.8773 87.6639 19.5013 86.5973 17.752C85.5519 15.9813 85.0293 13.9973 85.0293 11.8C85.0293 9.60267 85.5519 7.62933 86.5973 5.88C87.6639 4.10933 89.1253 2.72267 90.9813 1.72C92.8586 0.717333 94.9599 0.216 97.2853 0.216C99.6106 0.216 101.701 0.717333 103.557 1.72C105.413 2.72267 106.875 4.10933 107.941 5.88C109.008 7.62933 109.541 9.60267 109.541 11.8C109.541 13.9973 109.008 15.9813 107.941 17.752C106.875 19.5013 105.413 20.8773 103.557 21.88C101.701 22.8827 99.6106 23.384 97.2853 23.384ZM97.2853 18.968C98.6079 18.968 99.8026 18.6693 100.869 18.072C101.936 17.4533 102.768 16.6 103.365 15.512C103.984 14.424 104.293 13.1867 104.293 11.8C104.293 10.4133 103.984 9.176 103.365 8.088C102.768 7 101.936 6.15733 100.869 5.56C99.8026 4.94133 98.6079 4.632 97.2853 4.632C95.9626 4.632 94.7679 4.94133 93.7013 5.56C92.6346 6.15733 91.7919 7 91.1733 8.088C90.5759 9.176 90.2773 10.4133 90.2773 11.8C90.2773 13.1867 90.5759 14.424 91.1733 15.512C91.7919 16.6 92.6346 17.4533 93.7013 18.072C94.7679 18.6693 95.9626 18.968 97.2853 18.968ZM120.797 23.384C119.027 23.384 117.309 23.1493 115.645 22.68C114.003 22.1893 112.68 21.56 111.677 20.792L113.437 16.888C114.397 17.592 115.539 18.1573 116.861 18.584C118.184 19.0107 119.507 19.224 120.829 19.224C122.301 19.224 123.389 19.0107 124.093 18.584C124.797 18.136 125.149 17.5493 125.149 16.824C125.149 16.2907 124.936 15.8533 124.509 15.512C124.104 15.1493 123.571 14.8613 122.909 14.648C122.269 14.4347 121.395 14.2 120.285 13.944C118.579 13.5387 117.181 13.1333 116.093 12.728C115.005 12.3227 114.067 11.672 113.277 10.776C112.509 9.88 112.125 8.68533 112.125 7.192C112.125 5.89067 112.477 4.71733 113.181 3.672C113.885 2.60533 114.941 1.76267 116.349 1.144C117.779 0.525333 119.517 0.216 121.565 0.216C122.995 0.216 124.392 0.386666 125.757 0.727999C127.123 1.06933 128.317 1.56 129.341 2.2L127.741 6.136C125.672 4.96267 123.603 4.376 121.533 4.376C120.083 4.376 119.005 4.61067 118.301 5.08C117.619 5.54933 117.277 6.168 117.277 6.936C117.277 7.704 117.672 8.28 118.461 8.664C119.272 9.02667 120.499 9.38933 122.141 9.752C123.848 10.1573 125.245 10.5627 126.333 10.968C127.421 11.3733 128.349 12.0133 129.117 12.888C129.907 13.7627 130.301 14.9467 130.301 16.44C130.301 17.72 129.939 18.8933 129.213 19.96C128.509 21.0053 127.443 21.8373 126.013 22.456C124.584 23.0747 122.845 23.384 120.797 23.384ZM141.524 4.76V18.84H145.396V23H132.436V18.84H136.34V4.76H132.436V0.599998H145.396V4.76H141.524Z" fill="#2D2D2D"/>
</svg>
